<svg xmlns="http://www.w3.org/2000/svg" xmlns:xlink="http://www.w3.org/1999/xlink" width="549" height="321" viewBox="0 0 549 321">
    <defs>
        <path id="a" d="M0 38h547.752v282.429H0z"/>
        <filter id="b" width="113.1%" height="125.5%" x="-6.6%" y="-12.7%" filterUnits="objectBoundingBox">
            <feGaussianBlur in="SourceAlpha" result="shadowBlurInner1" stdDeviation="16.5"/>
            <feOffset dy="-39" in="shadowBlurInner1" result="shadowOffsetInner1"/>
            <feComposite in="shadowOffsetInner1" in2="SourceAlpha" k2="-1" k3="1" operator="arithmetic" result="shadowInnerInner1"/>
            <feColorMatrix in="shadowInnerInner1" values="0 0 0 0 0.976470588 0 0 0 0 0.988235294 0 0 0 0 0.988235294 0 0 0 1 0"/>
        </filter>
        <path id="c" d="M138 124h271v196H138z"/>
        <filter id="d" width="126.6%" height="136.7%" x="-13.3%" y="-18.4%" filterUnits="objectBoundingBox">
            <feGaussianBlur in="SourceAlpha" result="shadowBlurInner1" stdDeviation="11.5"/>
            <feOffset dy="-49" in="shadowBlurInner1" result="shadowOffsetInner1"/>
            <feComposite in="shadowOffsetInner1" in2="SourceAlpha" k2="-1" k3="1" operator="arithmetic" result="shadowInnerInner1"/>
            <feColorMatrix in="shadowInnerInner1" values="0 0 0 0 0.976470588 0 0 0 0 0.988235294 0 0 0 0 0.988235294 0 0 0 1 0"/>
        </filter>
        <path id="e" d="M.623 37.57H.374v.517l-.374.78h.374v42.752h547.753V37.571h-284.99L241.77.99A2 2 0 0 0 240.043 0H19.934a2 2 0 0 0-1.802 1.134L.622 37.57z"/>
        <path id="f" d="M22.459 9.069h22.459v23.32H22.459z"/>
    </defs>
    <g fill="none" fill-rule="evenodd">
        <use fill="#F7F7F7" xlink:href="#a"/>
        <use fill="#000" filter="url(#b)" xlink:href="#a"/>
        <text fill="#4A4A4A" font-family="Lato-Black, Lato" font-size="8" font-weight="700" letter-spacing=".304">
            <tspan x="462" y="274">Powered by</tspan>
        </text>
        <text fill="#4A4A4A" font-family="Lato-Black, Lato" font-size="14" font-weight="700" letter-spacing=".304">
            <tspan x="461" y="289">CEZAN</tspan>
        </text>
        <use fill="#FFF" xlink:href="#c"/>
        <use fill="#000" filter="url(#d)" xlink:href="#c"/>
        <rect width="76" height="8" x="170" y="217" fill="#617A90" rx="1"/>
        <text fill="#000" font-family="Lato-Black, Lato" font-size="10" font-weight="700" letter-spacing=".38">
            <tspan x="170" y="203">Work Exp</tspan>
        </text>
        <rect width="206" height="8" x="170" y="237" fill="#617A90" rx="1"/>
        <rect width="206" height="8" x="170" y="257" fill="#617A90" rx="1"/>
        <text fill="#000" font-family="Lato-Light, Lato" font-size="10" font-weight="300" letter-spacing=".38">
            <tspan x="213" y="168">Experienced Sales Leader </tspan>
        </text>
        <text fill="#000" font-family="Lato-Bold, Lato" font-size="15" font-weight="bold" letter-spacing=".38">
            <tspan x="217" y="154">Hannah Stevens</tspan>
        </text>
        <use fill="#F0F0F0" xlink:href="#e"/>
        <path stroke="#979797" stroke-width=".5" d="M547.877 37.82h.25l-.25-.25v.25zm0 43.55v.25l.25-.25h-.25zm-547.253 0h-.25l.25.25v-.25zM.397 38.615H0l.225.359.172-.359zm.227-.795v-.25h-.25v.25h.25zm547.253 0v43.548H.624V38.616H.397l.203-.42.024-.109v-.266H.78L18.357 1.242A1.75 1.75 0 0 1 19.934.25h220.11c.621 0 1.197.33 1.51.867l21.44 36.704h284.883z"/>
        <path stroke="#ADADAD" stroke-linecap="round" stroke-linejoin="round" stroke-width="2" d="M32 60H16M22 66l-6-6 6-6M101 54L89 66M89 54l12 12"/>
        <rect width="398.365" height="32.389" x="122" y="44" fill="#FFF" rx="3"/>
        <text fill="#000" font-family="Lato-Regular, Lato" font-size="12">
            <tspan x="132.581" y="64.743">https://www.cezan.co/HannahStevensResume</tspan>
        </text>
        <text fill="#000" font-family="Lato-Regular, Lato" font-size="12">
            <tspan x="67" y="25">Hannah Stevens Resume</tspan>
        </text>
        <circle cx="425" cy="242" r="7.364" fill="#293A49"/>
        <circle cx="425" cy="242" r="9" stroke="#293A49"/>
        <path fill="#FFF" d="M423.642 239.286l4.539 2.764a.5.5 0 0 1-.045.878l-4.538 2.17a.5.5 0 0 1-.716-.45v-4.935a.5.5 0 0 1 .76-.427z"/>
        <circle cx="119" cy="203" r="7.364" fill="#293A49"/>
        <circle cx="119" cy="203" r="9" stroke="#293A49"/>
        <path fill="#FFF" d="M117.642 200.286l4.539 2.764a.5.5 0 0 1-.045.878l-4.538 2.17a.5.5 0 0 1-.716-.45v-4.935a.5.5 0 0 1 .76-.427z"/>
        <circle cx="119" cy="155" r="7.364" fill="#293A49"/>
        <circle cx="119" cy="155" r="9" stroke="#293A49"/>
        <path fill="#FFF" d="M117.642 152.286l4.539 2.764a.5.5 0 0 1-.045.878l-4.538 2.17a.5.5 0 0 1-.716-.45v-4.935a.5.5 0 0 1 .76-.427z"/>
        <rect width="79" height="20" x="446" y="124" fill="#3FB1FF" rx="2"/>
        <path stroke="#FFF" stroke-linecap="round" stroke-linejoin="round" stroke-width=".8" d="M450.5 136v1.5a1 1 0 0 0 1 1h6a1 1 0 0 0 1-1V136M452.5 133.5l2 2 2-2M454.5 129.3v6.2"/>
        <text fill="#FFF" font-family="Lato-Bold, Lato" font-size="6" font-weight="bold" letter-spacing=".25">
            <tspan x="464" y="137">Download Resume</tspan>
        </text>
        <path stroke="#ADADAD" stroke-linecap="round" stroke-linejoin="round" stroke-width="2" d="M53 60h16M63 54l6 6-6 6"/>
        <path stroke="#868685" stroke-linecap="round" d="M227.913 18.153l6.937 7.203M234.85 18.153l-6.937 7.203"/>
        <mask id="g" fill="#fff">
            <use xlink:href="#f"/>
        </mask>
        <use fill="#FFF" xlink:href="#f"/>
        <text fill="#000" font-family="Lato-Black, Lato" font-size="12" font-weight="700" mask="url(#g)">
            <tspan x="28.698" y="25.877">C</tspan>
        </text>
    </g>
</svg>
