<svg xmlns="http://www.w3.org/2000/svg" width="27" height="27" viewBox="0 0 27 27">
    <path fill="none" fill-rule="evenodd" stroke="#FFF" stroke-width="1.5" d="M21.085 14.652c-.259.257-.519.502-.779.735l.225 2.27c.146 1.471-.492 2.807-1.73 3.628L13.184 25l-.478-6.168c-1.314-.042-2.452-.5-3.31-1.352-.852-.846-1.315-1.967-1.362-3.26L2 13.836l3.572-5.599c.816-1.28 2.2-1.947 3.718-1.794l2.203.223c.238-.263.49-.526.753-.788C16.78 1.38 23.92.559 25.814 1.185c.63 1.88-.197 8.969-4.729 13.467zM20.763 6.2a2.692 2.692 0 0 0-3.789 0 2.645 2.645 0 0 0 0 3.76 2.694 2.694 0 0 0 3.789 0 2.645 2.645 0 0 0 0-3.76z"/>
</svg>
