<svg xmlns="http://www.w3.org/2000/svg" xmlns:xlink="http://www.w3.org/1999/xlink" width="45" height="45" viewBox="0 0 45 45">
    <defs>
        <linearGradient id="c" x1="50%" x2="50%" y1="0%" y2="100%">
            <stop offset="0%" stop-color="#0CE8CE"/>
            <stop offset="100%" stop-color="#079F7D"/>
        </linearGradient>
        <circle id="b" cx="14.403" cy="30.473" r="8.682"/>
        <filter id="a" width="180.6%" height="180.6%" x="-40.3%" y="-28.8%" filterUnits="objectBoundingBox">
            <feOffset dy="2" in="SourceAlpha" result="shadowOffsetOuter1"/>
            <feGaussianBlur in="shadowOffsetOuter1" result="shadowBlurOuter1" stdDeviation="2"/>
            <feColorMatrix in="shadowBlurOuter1" values="0 0 0 0 0 0 0 0 0 0 0 0 0 0 0 0 0 0 0.119451993 0"/>
        </filter>
        <path id="e" d="M41.984 4.312l-10.752 26.88a1 1 0 0 1-1.87-.035l-1.527-4.267a13.959 13.959 0 0 0-8.643-8.51l-4.04-1.376a1 1 0 0 1-.105-1.85l25.58-12.117a1 1 0 0 1 1.357 1.275z"/>
        <filter id="d" width="155.6%" height="153.2%" x="-27.8%" y="-19.5%" filterUnits="objectBoundingBox">
            <feMorphology in="SourceAlpha" operator="dilate" radius=".5" result="shadowSpreadOuter1"/>
            <feOffset dy="2" in="shadowSpreadOuter1" result="shadowOffsetOuter1"/>
            <feGaussianBlur in="shadowOffsetOuter1" result="shadowBlurOuter1" stdDeviation="2"/>
            <feComposite in="shadowBlurOuter1" in2="SourceAlpha" operator="out" result="shadowBlurOuter1"/>
            <feColorMatrix in="shadowBlurOuter1" values="0 0 0 0 0 0 0 0 0 0 0 0 0 0 0 0 0 0 0.364441803 0"/>
        </filter>
    </defs>
    <g fill="none" fill-rule="evenodd" transform="matrix(-1 0 0 1 45 -.876)">
        <use fill="#000" filter="url(#a)" xlink:href="#b"/>
        <use fill="url(#c)" xlink:href="#b"/>
        <rect width="1.24" height="7.442" x="13.907" y="26.752" fill="#FFF" rx=".62"/>
        <rect width="1.24" height="7.442" x="13.907" y="26.752" fill="#FFF" rx=".62" transform="rotate(-90 14.527 30.473)"/>
        <g fill="#000" stroke-linecap="round" stroke-linejoin="round">
            <use filter="url(#d)" xlink:href="#e"/>
            <use stroke="#FFF" xlink:href="#e"/>
        </g>
    </g>
</svg>
