<svg xmlns="http://www.w3.org/2000/svg" width="102" height="151" viewBox="0 0 102 151">
    <g fill="none" fill-rule="evenodd">
        <path fill="#FFF" stroke="#293A49" stroke-width="3" d="M6.995 2A4.993 4.993 0 0 0 2 6.994V129.1c35.8 34.9 83.3 17.9 97.548.9V13.031c0-3.831-1.709-3.636-1.709-3.636-2.23-1.599-5.865-4.19-8.11-5.783L87.46 2H6.994z"/>
        <circle cx="32.5" cy="38.5" r="4.5" fill="#000"/>
        <circle cx="68.5" cy="38.5" r="4.5" fill="#000"/>
        <path fill="#000" d="M39 44h23v1.5C62 51.851 56.851 57 50.5 57S39 51.851 39 45.5V44z"/>
        <path fill="#FF1431" d="M46 56l.126-.255A4.858 4.858 0 0 1 50.5 53h.934c1.9 0 3.65 1.035 4.566 2.7-.521.417-3 1.3-5 1.3-.9.1-4.042-.282-5-1z"/>
    </g>
</svg>
